<?xml version='1.0' encoding='utf-8'?>
<svg xmlns="http://www.w3.org/2000/svg" enable-background="new 0 0 1920 1625" version="1.1" viewBox="0 0 1920 1625">
<g stroke-width=".0938">
	<path d="m184.61 51.66c9.64-4.52 21.16-1.43 29.79 4.01 9.67 6.35 19.26 13.31 26.16 22.74 4.79 6.24 8.11 13.41 11.17 20.61 5.76-6.35 12.49-11.74 19.32-16.89 10.52-7.65 22.5-12.86 33.77-19.26 6.04-3.92 13.5-1.97 20.17-2.66 15.49-4.98 31.78-6.56 47.92-7.85 4.41-0.31 8.68-1.66 13.12-1.8 11.58-0.74 22.94 3.01 33.08 8.33 9.83 5.14 20.41 8.55 30.87 12.12 9.06 3.11 18.07 7.48 24.37 14.92 8.09 9.02 11.97 21.02 13.19 32.9 1.33 11.67 0.69 23.45 0.32 35.16-0.15 2.04 0.37 4.28-0.79 6.13-1.72-2.36-3.28-4.89-5.58-6.73-4.05-3.45-9.32-4.84-14.37-6.09 0.15 6.28-0.53 12.55-1.41 18.75-0.51 7.27 4.69 13.02 9.22 18.04 4.55 5.47 9.32 10.83 13.01 16.94 1.11 1.92 2.41 4.67 0.61 6.6-2.96 3.74-6.48 7.13-8.69 11.41-1.24 3.8 3.63 5.58 4.36 8.94-0.62 3.75-4.42 5.47-7.32 7.25 1.5 2.84 4.75 5.48 3.61 9.02-2.31 0.41-5.42-0.03-6.92 2.09-0.49 3.2-0.24 6.48-0.79 9.69-1.03 6.93 2.2 14.21-0.78 20.87-1.65 3.16-4.06 6.64-7.82 7.3-5.97 1.34-12.11 1.58-18.2 1.96-9.13 0.85-17.02-5.02-25.96-5.73-5.31-0.8-11.13 0.74-14.59 5.03-6.53 7.73-9.35 17.68-13.26 26.83-4.64 10.73-7.68 22.04-10.93 33.24 6.95 0.26 14.24 1.12 20.15 5.11 4.89 3.3 9.53 7.23 12.67 12.29 13.16 19.21 26.25 38.65 42.26 55.66 11.35 12.35 24.86 22.56 35.72 35.38 6.35 7.48 11.82 15.9 14.76 25.32 1.95 6.21 2.28 12.77 2.41 19.23 24.24-15.86 51.83-25.26 78.18-36.86 10.81-4.65 20.62-11.36 31.62-15.59 3.74-1.47 7.8799-2.17 11.14-4.69 4.24-3.18 7.57-7.41 11.96-10.42 0.6-8.78 7.74-16.03 15.9-18.57 0.8199-1.13 1.54-2.46 2.9-3.03 2.63 0.04 4.37 2.6 7.04 2.53 4.33 0.35 8.41 2 12.03 4.36 5.77-1.17 11.32 1.31 16.59 3.36 4.75 2.12 9.12 5.5 11.77 10.04 1.61 2.69 1.85 6.25 0.14 8.97-3.48 6.19-10.52 8.92-16.95 10.94 0.02 8.62 0.05 17.24-0.01 25.86 11.75 6.58 23.54 13.08 35.35 19.57-0.94 0.64-1.91 1.24-2.87 1.84-11.59-6.42-23.15-12.9-34.8-19.22-10.03 5.68-20.21 11.1-30.21 16.82-1.05-0.56-2.08-1.11-3.09-1.69 10.87-6.08 21.77-12.12 32.7-18.1 0.04-8.12 0.04-16.23 0-24.35-7.92 1.74-15.47 4.87-23.51 6.06-7.27 1.22-14.73 2.15-21.51 5.22-9.94 4.44-18.21 11.68-26.35 18.74-30.09 25.96-63.64 47.55-98.08 67.22 11.39 19.86 19.82 41.23 28.09 62.53 9.13 23.13 11.91 48.21 11.64 72.92 0.5699 7.49-2.76 14.43-5.79 21.04-2.33 4.74-4.31 9.64-6.73 14.33 1.02 1.01 2.27 2.03 2.12 3.67-0.18 4.13-2.34 7.83-4.2 11.41-7.46 13.14-17.21 24.76-25.96 37.02-8.82 15.47-13.47 32.93-16.59 50.35-5.18 29.84-5.52 60.32-11.34 90.08-6.05 33.3-11.76 66.68-15.82 100.29-2.68 22.85-5.1 45.79-4.94 68.83 0.04 21.06-1.48 42.4-8.21 62.5-3.47 10.46-7.49 20.75-12.09 30.77-3.62 7.25-8.66 13.67-12.35 20.87-3.15 7.28 1.67 14.56 2.64 21.77 3.19 23.22 2.21 46.76 0.33 70.04-2.37 35.68-3.9 71.41-5.45 107.13-0.39 7.1001 1.1 14.41 4.83 20.52 3.97 6.5701 10.23 11.44 17 14.89 10.28 5.21 21.69 7.7 33.03 9.29-0.01 8.21 0.02 16.43 0 24.65-6.92 2.5299-13.92 5.38-21.41 5.46-11.83 0.74-23.11-3.55-33.85-7.9301 9.15 13.42 18.12 28.33 33.13 35.9 6.84 3.15 14.13 5.21 20.86 8.65 0.31 0.2 0.92 0.6 1.23 0.8 0.1 11.18 0.02 22.37 0.04 33.55-0.26 0.0601-0.78 0.1801-1.04 0.23-9.38 1.39-18.91 0.5601-28.36 0.8-16.24 0.0599-32.65-0.96-48.39-5.23-11.23-2.8101-21.87-8.25-33.57-8.92-5.57-0.55-9.41 5.38-14.95 4.62-7.35-1.11-14.77-1.86-22.03-3.51-6.87-1.49-14.05-2.2999-20.36-5.58-3.17-1.63-6.04-4.6901-5.93-8.4501-0.02-11.22-1.13-22.45-0.06-33.64 1.74-15.02 4.66-30.1 3.3-45.27-2.03-19.5-9.14-37.95-13.53-56.95-3.74-22.9 0.87-46.02 0.86-69.01-0.04-49.59-0.89-99.61 8.35-148.55 5.02-28.14 10.17-56.26 15.31-84.37 4.75-26.9 10.56-53.7 12.28-81.02 1.61-21.64 1.7-43.36 1.47-65.04-0.38-18.71 0.26-37.7-4.51-55.97-2.15-9.01-5.31-17.74-8.88-26.27-1.9-4.41 0.56-9.71-2.24-13.82-3.98-5.39-10.4-8.21-14.69-13.3-5.45-6.34-8.73-14.13-12.47-21.52-1.6-3.22-3.8-6.29-4.08-10-1.04-9.36 0.87-18.68 1.23-28.02 0.11-11.04-0.11-22.07 0.1-33.1 1.01-12.41 8-23.14 14.33-33.47 4.3-6.9 8.85-13.71 12.16-21.17 0.3-1.51 2.02-0.73 3.05-0.89 3.94-12.36 7.05-25.18 6.73-38.23-9.9-5.23-20.34-9.32-30.33-14.36-19.5-9.58-38.25-20.59-56.55-32.27-13.07-8.14-25.31-17.52-38.19-25.93-11.61-7.08-23.42-13.84-34.78-21.31-4.92-3.44-10.35-6.5-14.09-11.31 0.25-8.66 1.24-17.55 5.06-25.45 3.74-8.08 9.8-14.72 15.66-21.3 31.72-35.27 66.56-67.76 95.89-105.14 5.72-7.28 11.07-14.89 17.66-21.42 3.99-3.84 8.54-7.45 14.01-8.84 5.53-1.12 11-2.61 16.65-3.05 5.25-15.16 11.71-29.92 17.43-44.93 1.54-4.54 4.03-8.66 5.76-13.12 0.51-1.67 1.41-3.85 0.01-5.34-2.78-3.52-5.9-6.75-8.72-10.23-11.14-1.04-22.25-2.84-32.95-6.18-11.47-3.57-22.85-8.08-32.52-15.35-11.76-8.69-20.67-20.58-28.19-32.99-3.78-6.36-7.91-12.63-10.17-19.75-4.79-14.41-6.15-29.78-5.61-44.9 0.34-11.24 2.55-22.68 8.33-32.46-7.14-2.75-15.36 0.35-20.4 5.78-8.35 7.54-11.37 18.88-12.68 29.67-2.86 25.57-3.06 51.44-0.7 77.06 1.79 18.47 4.36 36.93 9.01 54.92 2.84 11.44 5.52 23.19 4.47 35.05-0.96 10.49-5.15 20.31-9.78 29.65-3.36 6.54-6.41 13.3-10.93 19.16-7.06 9.57-16.52 17.06-26.42 23.49-4.23 2.79-9.53 3.07-14.43 2.69-10.3-0.95-20.32-3.91-30.06-7.24l-0.72-1.17c8.25-0.49 16.58-0.58 24.71-2.28 5.72-1.32 12.14-1.76 16.6-6.01 4.57-4.13 9.29-8.96 10.63-15.16 0.18-11.28-1.43-22.63-4.97-33.35-9.13-28.12-30.22-50.54-39.02-78.77-5.61-23.57-8.22-47.85-8.04-72.08-0.03-21.18 0.72-42.72 7.06-63.1 5.3-17.48 15.56-33.44 29.53-45.25 7.7299-6.2097 13.91-14.48 22.93-18.98m485.46 363.46c1.28 1.39 2.94 2.37 4.9 2.09-1.65-0.68-3.28-1.38-4.9-2.09m-24.77 13.86c4.88-3.16 9.97-6.89 11.37-12.9-5.47 2.29-9.83 7.15-11.37 12.9m-396.64 47.78c-7.33 8.67-16.83 15.53-22.69 25.43-2.82 4.68-4.12 10.84-1.45 15.88 1.09 1.85 1.83 4.55 4.37 4.79 10.14 2.85 19.18 8.41 28.18 13.72 16.88 10.8 31.8 24.27 46.5 37.8 8.31 7.3 16.07 15.3 25.03 21.82-7.39-29.76-18.26-58.48-27.36-87.72-5.66-18.98-12.06-37.78-16.33-57.14-12.17 8.31-25.97 14.6-36.25 25.42z" stroke="#000"/>
	<path d="m1572.8 85.89c5.3-1.09 10.75-0.59 16.14-0.58 19.6 0.35 39.57 1.85 58.14 8.63 7.85 2.91 15.38 6.82 21.99 11.99 10.02 7.82 20.09 15.87 27.88 26.02 3.85 5.01 7.61 10.29 9.42 16.44 1.49 5.15 2.8999 10.34 4.34 15.52 1.4399 4.97-0.96 11.09 3.12 15.17 10.32 10.22 26.3 13.01 35.21 24.9 5.6901 7.27 2.5 17.62 7.89 24.99 4.25 5.9 8.47 11.83 12.2 18.08 7.85 12.24 11.47 27.67 8.3099 42-0.6799 5.02-5.9 8.77-4.71 14.06 2.0699 5.46 8.39 6.98 12.13 10.92 5.01 6.34 8.34 13.89 10.37 21.68 5.98 19.68 13.7 39.88 11.07 60.82-0.58 7.1-5.8199 13.09-4.87 20.41 0.64 7.59 3.1801 16.37 10.35 20.26 9.2101 3.6 19.33 6.52 29.27 4.46 3.98-0.7 7.6901-2.34 11.48-3.71-1.61 1.55-3.2 3.12-4.71 4.76 4.55 0.15 9.28-0.67 13.69 0.86 2.71 0.9 4.8799 2.83 7.0199 4.68-4.0299 0-8.0399-0.1-12.04 0.16 6.39 1.73 12.85 3.31 19.06 5.65-2.9399 1.68-6.41 1.15-9.6 0.86-6.08-0.58-12.09-1.73-18.11-2.63 0.9 1.51 1.88 3.04 2.84 4.55-7.61-0.07-15.22-0.04-22.82-0.04-1.78 0.02-4.04 0.49-4.6801 2.38-1.22 2.84-0.51 6.03-0.47 9.02 2.4299 1.28 4.71 2.84 6.89 4.54-2.4401 0.66-6.0601-1.02-7.5 1.48 4.65 1.48 9.37 2.77 14.03 4.29-0.41 0.89-1.0901 1.31-2.04 1.26-4.42 0.42-8.79-0.39-13.17-0.68-1.09 4.02-2.3099 8.03-3.96 11.86-2.1 5.28-6.88 8.86-9.09 14.08-2.14 4.32-1.66 9.24-2.65 13.84-2.17-7.75-2.6-17.37-9.75-22.45-0.88 6.55 0.61 13.32 4.25 18.84 5.28 8.61 13.84 14.27 21.43 20.63-8.01-3.4-15.29-8.49-21.13-14.94-3.74-3.8-6.7599-8.24-10.55-11.96 1.53 4.89 2.39 10.07 4.98 14.57 1.65 2.93 4.5 4.84 6.9301 7.08 4.8899 4.47 9.96 8.75 14.87 13.21-5.63-2.03-11.69-3.23-16.77-6.49-6.38-4.75-9.8301-12.14-14.37-18.44-1.9401-2.54-3.52-5.31-5.25-7.97-1.17 3.96-3.15 7.57-5.36 11.01 0.0499 0.73 0.1399 2.2 0.1899 2.93-0.24-0.65-0.72-1.93-0.96-2.57-1.0801 1.47-2.1 2.96-3.13 4.45 7.0599 7.95 14.45 15.64 21.19 23.88-8.0399-6.86-14.56-15.31-22.65-22.09 1.88 11.6 11.85 20.33 13.23 32.09-6.0601-2.55-11.73-6.03-16.63-10.42-5.7001-5.05-10.28-11.17-15.28-16.88 2.13 6.47 2.83 14.11 8.36 18.79 6.23 5.55 12.43 11.13 18.75 16.58-5.8099-2.21-12.17-3.33-17.38-6.8799-6.33-4.89-9.6799-12.42-14.37-18.71-3.5599-4.66-6.05-10.01-8.13-15.46-1.0599 4.64-3.96 8.94-3.53 13.83-0.47 0-1.4099-0.01-1.88-0.02-1.09 2.1-2.61 3.92-4.21 5.63 7.9301 10.95 16.33 21.55 24.52 32.31-8.17-7.26-14.22-16.53-21.61-24.52-1.7001-1.6-2.9601-4.03-5.3401-4.62 0.02 7.86 8.1801 12.97 8.1201 20.86 0.7999 2.32 2.6899 4.06 3.9399 6.16 6.22 9.19 8.48 20.53 8.36 31.47-2.28 4.04-6.6899 6.26-10.26 9.03-17.13 11.81-35.84 21.14-52.66 33.43-19.64 14.16-40.32 26.86-61.46 38.65 2.24 8.11 3.22 16.51 5.78 24.55 2.05 6.98 4.5 13.83 7.09 20.64-2.86-1.15-4.77-3.69-7.1-5.56-14.79-12.56-31.67-23.4-50.66-28.18-14.39-3.65-30.38-2.55-43.28 5.19-9.9 5.79-17.35 14.91-22.97 24.77 2.3301-1.91 4.4401-4.37 7.41-5.29 8.08-2.08 16.56-3.7 23.65-8.34 10.03-5.6 22.3-6.8799 33.4-4.1 24.28 5.43 44.59 21.35 61.64 38.79 3.2001 3.63 7.3701 6.72 8.9601 11.48 2.24 6.33 4.66 12.61 7.62 18.65 5.25 10.64 13.05 19.69 19.66 29.47l-0.5901 0.23c-12.83-0.13-25.65-0.03-38.47-0.06-1.02 7.61-6.64 13.33-9.61 20.18-0.08 0.07-0.23 0.2-0.3101 0.26-4.3999 2.33-9.12 3.97-13.65 6-5.8301 2.47-11.65 4.96-17.48 7.41-4.88 2.08-9.7599 4.15-14.63 6.21-5.7599 2.44-11.52 4.88-17.26 7.35-5.4901 2.24-10.92 4.66-16.39 6.9399-5.67 2.45-11.38 4.79-17.04 7.23-2.3199 0.97-4.62 1.96-6.9 3-9.34-32.64-14.79-67.11-10.31-101.01-4.05 0.96-8.52 2.1-12.4 0.01-3.33 35.53 2.03 71.39 12.12 105.47-4.75 1.9-9.41 3.98-14.12 5.95-7.1 2.99-14.18 5.99-21.27 9.01 39.77 93.84 79.67 187.62 119.46 281.45 5.67-2.2799 11.25-4.7799 16.92-7.09 3.61 17.93 7.55 35.78 11.61 53.61-7.15 0.02-14.31-0.0499-21.46 0.04-2.2101 10.72-5.29 21.27-6.9501 32.11-3.5699 20.46-6.5699 41.01-10.89 61.33-2.38 11.53-4.6001 23.09-7.03 34.61-6.4 23.31-12.89 46.6-19.29 69.91-1.78 7.29-3.39 14.62-5.2 21.92 0.38 1.16 0.7999 2.36 1.25 3.5599 2.26 1.03 3.6599 3.1901 5.39 4.91 6.9399 7.29 14.23 14.76 17.79 24.39 2.23 4.72 0.8401 10.05-0.74 14.74-3.78 10.11-10.07 18.98-15.48 28.23-4.34 13.31-3.95 27.78-0.23 41.22-4.29 0.02-8.5701-0.2599-12.84 0-1.88 0.14-3.7101-0.1399-5.4-0.88 0.38-12.09 0.1599-24.18 0.1899-36.27-0.0399-3.27-0.47-7.4401-3.7999-9-3.4701-1.1001-6.9601 0.58-10.05 2.01-8.3 4.2799-15.44 10.41-22.64 16.28-6.76 5.9-13.94 11.42-19.85 18.22-2.9401 3.0699-5.9301 6.3999-9.99 7.97-8.14 2.9-16.61 5.37-25.33 5.26-25.9 0.02-52.09 0.89-77.61-4.3201-5.2699-0.87-9.0599-5.1699-11.86-9.37-1.21-3.2999 2.61-4.77 5.12-5.1899 10.91-2.23 21.57-5.4501 32.33-8.29 4.52-1.29 9.3099-1.83 13.53-4.05 2.8401-1.5199 6.01-2.25 9.2401-1.7799 2.6899-0.7001 5.1699-2.05 7.7699-3.05 3-0.9 3.76-4.2999 5.4601-6.5599 6.47-9.8401 11.27-20.62 17.34-30.68 3.64-6.02 6.6801-12.42 11.13-17.9 3.25-4.71 7.23-8.97 9.61-14.22 4.61-9.12 9.17-18.27 13.9-27.32 5.4-22.77 10.38-45.65 15.61-68.46 2.62-10.29 3.3199-20.92 4.92-31.39 1.0699-9.6799 3.25-19.27 3.0299-29.05 0.12-13.69 0.62-27.38 0.6901-41.06-0.99-12.51-2.26-24.99-3.1801-37.49-6.74 0.0801-13.53 0.54-20.22-0.2999-3.75-3.62-4.1899-9.2401-5.46-14.03-2.1-12.61-5.8401-24.84-8.75-37.26-11.39-46.27-17.09-93.66-23.86-140.76-9.7301-65.81-19.29-131.65-30.81-197.18-1.14-7.73-2.17-15.57-5.36-22.77-19.34-0.11-38.69-0.07-58.03-0.02 4.54-19.4 8.7001-38.89 13.55-58.21 6.75-26.71 15.75-52.76 23.94-79.04 7.12-22.46 12.72-45.45 21.66-67.29-9.87-6.41-20.31-11.88-30.38-17.97-24.88-15.24-49.12-31.67-71.47-50.48-11.59-9.67-22.87-21.07-37.93-24.98-8.27-2.19-16.93-2.56-25.07-5.23-4.1901-1.39-8.47-2.46-12.73-3.52-0.01 8.11-0.0601 16.23 0.0299 24.35 10.87 5.98 21.73 11.97 32.55 18.02-1 0.59-2 1.17-3 1.72-10.09-5.67-20.25-11.21-30.35-16.85-11.57 6.44-23.18 12.81-34.74 19.25-0.9501-0.62-1.8401-1.27-2.7001-1.93 11.79-6.45 23.55-12.96 35.28-19.52-0.08-8.6-0.01-17.21-0.03-25.81-6.4399-2-13.41-4.77-16.96-10.89-2.05-3.25-1.25-7.55 1-10.48 4.78-6.82 12.96-10.01 20.76-11.9 2.9-0.8 6.25 0.78 8.8099-1.24 3.39-2.09 7.3301-2.98 11.25-3.48 2.15-0.29 3.63-2.57 5.9901-2.12 1.7599 1.08 2.2899 3.56 4.48 4.1 6.99 2.91 11.91 9.61 13.32 16.97 6.61 4.12 10.89 11.7 18.74 13.83 11.12 3.24 20.88 9.65 31.19 14.73 32.89 15.27 68.8 25.83 97.14 49.38-0.3-6.89 0.1599-13.78-0.28-20.66-0.42-6.65-1.09-13.46 0.59-20 1.24-5.05 2.48-10.09 3.59-15.17 2.3401-9.11 9.6801-15.47 15.76-22.17 11.45-12.23 25.52-21.92 35.54-35.49 11.28-14.22 21.63-29.14 31.61-44.3 6.45-9.41 12.88-18.95 20.68-27.31 9.7699-9.87 24.48-11.47 37.67-11.1-2.6-11-7.35-21.32-11.43-31.82-2.4401-5.95-5.05-11.98-9.27-16.92-2.8-3.34-7.12-5.25-11.46-5.18-6.9701 0.02-13.51 2.76-20.02 4.91-3.79 1.43-7.92 0.95-11.86 0.88-5.38-0.37-10.79-0.74-16.05-1.98-3.28-0.74-5.27-3.77-6.85-6.48-2.35-4.22-1.62-9.22-1.2001-13.8 0.8201-5.65-0.6-11.26-0.5599-16.9-0.89-3.67-6.5601-0.8-7.59-4.02 0.6599-2.83 2.4099-5.22 4.2699-7.39-2.85-2.08-7.2-3.79-7.38-7.86 1.01-2.91 4.7201-4.55 4.51-7.9-2.0199-4.69-5.9199-8.21-9.01-12.18-1.97-2.61 0.2101-5.65 1.5901-7.97 4.74-7.04 10.38-13.41 15.9-19.84 3.5-4.11 6.22-9.5 5.2899-15.04-2.4-13.55-0.71-27.36 0.97-40.89-2.0199-1.75-4.5299-3.16-5.5099-5.77-7.53-0.58-15.07-0.88-22.55-1.86 2.33-3.84 4.1899-7.98 6.86-11.61 2.79-3.99 7.49-5.84 11.34-8.6 8.42-5.13 16.23-11.77 26.06-14.04 1.6-2.34 3.2999-4.72 5.7999-6.19 7.5601-4.79 15-9.79 22.64-14.46 10.551-5.6002 22.701-6.5402 34.271-8.5702m-323.92 386.43c2.3199 0.36 4.5-0.66 6.1899-2.18-2.1801 0.37-4.25 1.14-6.1899 2.18m19.38-0.64c1.2599 5.18 5.48 8.9 9.98 11.4-1.9501-4.8-5.36-8.97-9.98-11.4m488.35 49.44c-1.05 6.77 0.76 13.77 4.5499 19.43 5.27 8.07 13.21 13.75 20.69 19.61-1.98-6.19-5.7001-11.67-8.84-17.31-4.85-7.66-9.44-15.78-16.4-21.73m-44.18 23c-0.3099 1.79-0.66 3.95 1.12 5.15 6.74 7.12 13.33 14.4 19.7 21.86-1.2301-3.91-3.7101-7.22-5.92-10.59-4.3001-6.03-8.9001-12-14.9-16.42m-70.59 1.26c-3.75 10.52-8 20.86-11.45 31.48-5.72 21.24-12.91 42.48-13.16 64.71 11.7-9.88 23.55-19.78 36.95-27.31 7.77-4.59 15.88-8.8 24.68-11.07 1.5599-2.85 3.48-5.69 3.7999-9.02 0.4401-4.7-1.62-9.18-4.13-13.02-5.7699-8.65-14.15-15.03-20.93-22.81-4.5301-5.13-10.13-9.13-15.76-12.96z" stroke="#000"/>
	<path d="m1268.8 547.81c3.23-1.62 6.4301-5.56 10.38-4.03 8.2 3.02 16.58 6.1 23.59 11.47 5.9601 5.05 10.98 11.08 16.09 16.96 4.7799 4.97 8.5 10.8 12.53 16.37 2.3201 3.54 4.89 7.3 5.1901 11.65 0.1699 2.75-1.9401 4.79-3.8101 6.47-5.5599 4.78-10.97 9.72-16.63 14.38-5.85 4.45-11.98 8.49-18.15 12.46-2.84-6.06-6.08-11.97-10.44-17.08-0.64-0.73-1.42-1.2401-2.33-1.54 1.63 23.43 7.8999 46.2 12.81 69.08 4.5601 20.23 7.34 40.84 12.08 61.02 3.1599 11.78 7.6499 23.49 7.5199 35.86-0.0299 4.82-3.88 8.51-7.61 11.03-6.0499 3.82-12.87 6.19-19.61 8.44-12.39 3.42-25.34 6.3-38.23 4.4301-3.0601-0.45-7.05-2.2-7-5.8101-0.1901-29.09-0.15-58.69-7.6801-87-1 9.63-0.33 19.36-0.74 29.03-0.3099 18.33-0.86 36.66-0.89 54.99-0.0599 2.14 0.05 4.32-0.37 6.45-0.6899 1.8-2.9399 1.3-4.4299 1.62-11.01 0.45-22.04 0.13-33.06 0.07-8.8099 0.06-16.31-5.2-24.35-8.02-0.5599-4.45 0.55-8.85 1.13-13.23 2.13-12.18 2.39-24.56 3.15-36.87 0.5-10.96 1.01-21.93 1.58-32.88 1.14-17.05 3.28-34.02 3.73-51.11 0.3301-16.72 0.4801-33.53-1.6499-50.14-3.12 8.03-3.92 16.8-6.5901 25-13.33-6.73-26.3-14.19-39.31-21.51-2.13-1.18-4.51-2.01-6.3-3.69-0.41-1.39 1.03-2.54 1.59-3.7 5.4601-7.29 9.88-15.32 15.72-22.32 6.23-8.36 12.82-16.46 19.89-24.12 3.61-4.69 8.2999-8.33 12.85-12.05 3.4199-2.67 7.78-5.06 12.27-4.06 2.38 1.07 4.25 2.96 6.2899 4.57 0.86 0.66 1.75 1.31 2.7001 1.93 11.64 6.69 25.51 5.21 38.38 5.24 9.4299 0.02 18.5-3.21 26.71-7.64 0.9999-0.55 1.9999-1.13 2.9999-1.72z" fill="#FDE3EE" stroke="#FDE3EE"/>
	<path d="m1248.9 472.32c1.9399-1.04 4.0099-1.81 6.1899-2.18-1.6899 1.52-3.87 2.54-6.1899 2.18z" fill="#FCFCFC" stroke="#FCFCFC"/>
	<path d="m1268.3 471.68c4.62 2.43 8.0299 6.6 9.98 11.4-4.5001-2.5-8.7202-6.22-9.98-11.4z" fill="#FEFEFE" stroke="#FEFEFE"/>
	<path d="m644.88 488.9c4.16-2.11 7.49 2.33 11.04 3.84 1.01 0.58 2.04 1.13 3.09 1.69 7.91 4.57 16.79 7.47 25.99 7.66 13.08 0.18 27.14 1.34 39.02-5.26 0.96-0.6 1.93-1.2 2.87-1.84 2.16-1.51 3.95-3.57 6.36-4.72 2.24-0.37 4.66-0.2 6.72 0.88 6.77 3.52 12.24 8.96 17.49 14.4 14.32 15.62 26.8 32.87 38.33 50.62-14.94 9.17-30.43 17.48-46.01 25.51-2.64-8.15-3.6-16.77-6.4-24.88-1 3.65-0.99 7.45-1.26 11.2-2.19 26.56-0.16 53.23 2.35 79.69 2.58 28.39 1.32 57.13 6.3101 85.29 0.17 2.65 1.46 5.93-0.44 8.22-6.1801 2.55-12.11 5.99-18.7 7.36-10.19 0.89-20.43 0.62-30.64 0.69-3.88 0.04-7.75-0.27-11.59-0.78-1.25-30.18-1.0699-60.42-1.85-90.61-0.65 1.31-1.25 2.65-1.58 4.09-5.22 22.26-6.22 45.23-6.24 68.02-0.32 5.4 0.63 10.98-0.52 16.27-3.8799 4.08-9.96 4.15-15.19 4.08-16.52-0.78-33.1-4.7-47.69-12.62-4.31-2.48-9.09-6.16-9.14-11.62-0.41-10.36 3.24-20.25 5.69-30.16 4.67-15.1 6.42-30.86 9.71-46.27 5.13-29.43 14.07-58.17 16.91-87.99-0.06-0.6-0.18-1.81-0.24-2.41-5.31 5.5-9.38 12.13-12.29 19.18-6.05-3.66-11.92-7.63-17.58-11.87-5.69-4.24-10.67-9.33-16.19-13.78-2.29-2.0601-5.14-4.41-5.07-7.78-0.12-2.17 0.87-4.16 1.88-6.01 6.68-11.57 15.4-21.79 24.45-31.56 2.91-3.08 5.79-6.27 9.33-8.65 6.4196-4.4699 13.83-7.1099 21.08-9.8799z" fill="#C8EAF4" stroke="#C8EAF4"/>
	<path d="m1533.6 706.52c12.9-7.74 28.89-8.84 43.28-5.19 18.99 4.78 35.87 15.62 50.66 28.18 2.33 1.87 4.24 4.41 7.1 5.56l0.2001 0.09c1.5599 2.9901 4.4399 4.91 6.6699 7.36 18.28 18.79 33.75 40.21 46.59 63.03 5.6599 10.12 11.04 20.42 15.88 30.97 0.7401 2.24 1.9501 4.55 1.7401 6.99-2.26 1.75-5.02 2.6-7.64 3.62-2.0601-3.08-3.4301-6.53-4.8-9.94-4.6799-9.3-9.1799-18.7-14.39-27.72-9.6699-16.74-20.6-32.82-33.3-47.42l0.1 1.78c-1.59-4.76-5.76-7.85-8.9601-11.48-17.05-17.44-37.36-33.36-61.64-38.79-11.1-2.78-23.37-1.5-33.4 4.1-7.09 4.64-15.57 6.26-23.65 8.34-2.97 0.92-5.08 3.38-7.41 5.29 5.6198-9.86 13.07-18.98 22.97-24.77z" fill="#8F9DCF" stroke="#8F9DCF"/>
	<path d="m1497.9 775.7c3.88 2.09 8.35 0.95 12.4-0.01-4.48 33.9 0.97 68.37 10.31 101.01 3.27 10.88 6.61 21.77 11.13 32.21 0.9 2.38 1.66 4.83 2.42 7.28-2.9601 1.96-6.17 3.46-9.51 4.62-1.34-2.54-2.67-5.09-3.75-7.75-3.92-10.53-7.72-21.1-10.88-31.89-10.09-34.08-15.45-69.94-12.12-105.47z" fill="#8F9ECF" stroke="#8F9ECF"/>
	<path d="m1703.6 798.95c7.4399-3.08 14.75-6.47 22.29-9.31 32.13 76.55 64.86 152.86 97.19 229.32 7.4401 17.33 14.66 34.76 22.18 52.05-7.38 3.16-14.77 6.3199-22.17 9.41-15.08-35.98-30.5-71.82-45.66-107.78-1.3999-3.44-2.9299-6.82-4.63-10.12 2.26-6.11 5.2101-13.2 2.36-19.58-2.5699-4.66-8.71-3.59-13-2.68 3.4901-2.67 8.53-6.12 7.0801-11.24-2.52-6.45-9.55-9.27-15.44-11.86-16.63-39.44-33.42-78.82-50.2-118.21z" fill="#8C6CAB" stroke="#8C6CAB"/>
	<path d="m1641.8 825.22c5.4399-2.28 10.83-4.66 16.27-6.93 13.83 32.56 27.57 65.16 41.55 97.66-2.39 1.33-4.4299 3.16-6.24 5.2-0.49-6.6-8.54-5.06-13.08-4.65-12.48-30.57-25.87-60.77-38.5-91.28z" fill="#8C6CAB" stroke="#8C6CAB"/>
	<path d="m1610.3 838.56c4.5299-2.03 9.25-3.67 13.65-6 0.76 1.34 1.5901 2.67 2.25 4.1 11.86 28.15 23.9 56.24 35.81 84.37-5 1.5699-9.92 3.36-14.81 5.2-8.3199-19.8-16.74-39.56-25.09-59.35-3.79-9.5101-8.42-18.67-11.81-28.32z" fill="#8C6CAB" stroke="#8C6CAB"/>
	<path d="m1578.2 852.18c4.8701-2.06 9.75-4.13 14.63-6.21 10.85 25.55 21.56 51.15 32.54 76.65 1.36 3.67 2.9401 7.27 4.85 10.7-4.83 2.24-9.62 4.55-14.33 7.02-8.3-19.74-16.73-39.42-25.08-59.13-4.2799-9.64-7.8999-19.59-12.61-29.03z" fill="#8C6CAB" stroke="#8C6CAB"/>
	<path d="m1693.7 854.18c4.1699 2.23 9.0399 2.84 13.48 0.94 7.95 18.72 15.85 37.47 23.85 56.17-0.79 0.08-2.37 0.2401-3.16 0.32-3.28-0.16-6.5399-0.27-9.7999-0.1-8.0302-19.15-16.34-38.18-24.37-57.33z" fill="#8C6CAB" stroke="#8C6CAB"/>
	<path d="m1544.5 866.47c5.47-2.28 10.9-4.7 16.39-6.9399 4.8999 10.17 8.9299 20.74 13.5 31.07 8.33 19.85 16.84 39.62 25.21 59.45-3.4401 2.65-7.28 5.29-9.17 9.33-1.1 2.03 0.5901 3.79 2.0701 4.98-2.0601-0.14-4.12-0.16-6.14 0.06-7.63-17.99-15.25-35.99-22.85-53.99-6.4501-14.61-12.16-29.55-19.01-43.96z" fill="#8C6CAB" stroke="#8C6CAB"/>
	<path d="m1520.6 876.7c2.28-1.04 4.5801-2.03 6.9-3 14.15 33.19 28.16 66.45 42.4 99.61-4.29 3.68-8.0701 7.91-11.55 12.35-8.51-18.82-16.24-38.01-24.37-57.01 4.01-2.28 6.59-6.87 5.65-11.52-0.41-4.27-4.36-6.66-7.9-8.22-4.52-10.44-7.86-21.33-11.13-32.21z" fill="#8C6CAB" stroke="#8C6CAB"/>
	<path d="m1474.6 896.13c7.09-3.02 14.17-6.02 21.27-9.01 16.82 39.67 33.67 79.33 50.56 118.98-2.1399 5.9-4.76 12.98-1.36 18.92 2.8301 3.6699 8 2.66 12.01 2.26-3.21 2.61-7.73 5.72-6.65 10.5 2.14 6.4099 9.02 9.3099 14.69 11.94 16.44 39.74 33.48 79.23 50.28 118.82-1.5 0.64-2.9401 1.33-4.42 1.95-5.67 2.3101-11.25 4.8101-16.92 7.09-39.79-93.83-79.69-187.61-119.46-281.45z" fill="#8C6CAB" stroke="#8C6CAB"/>
	<path d="m1752.1 991.98c3.1901-3.08 6.1901-6.37 8.92-9.87 15.19 35.1 29.63 70.52 45.07 105.5-3.71 1.73-7.51 3.22-11.27 4.8201-7.2599-17.41-14.87-34.68-22.07-52.12-7.09-16.02-13.48-32.34-20.65-48.33z" fill="#8C6CAB" stroke="#8C6CAB"/>
	<path d="m1728 1002.9c2.7201 0.04 5.49-0.08 8.15-0.84 13.88 32.54 27.53 65.16 41.5 97.66-5.35 2.39-10.79 4.5701-16.16 6.92-13.42-30.21-25.93-60.83-38.95-91.22 2.65-2.27 5.64-4.52 7.01-7.85 0.75-1.77-0.75-3.28-1.55-4.67z" fill="#8C6CAB" stroke="#8C6CAB"/>
	<path d="m1692.1 1032.7c4.8301-2.22 9.5801-4.64 14.27-7.1599 12.64 29.43 24.9 59.01 37.66 88.39-4.8201 2.15-9.7001 4.16-14.54 6.2301-11.49-27.6-23.28-55.08-34.96-82.6-0.77-1.66-1.61-3.2699-2.43-4.86z" fill="#8C6CAB" stroke="#8C6CAB"/>
	<path d="m1660.7 1045.2c4.9401-1.6699 9.8601-3.4199 14.71-5.34 7.2 18.72 15.62 36.93 23.25 55.47 4.83 10.57 8.74 21.55 13.82 32.01-4.83 2.14-9.71 4.13-14.56 6.1901-7.5901-17.9-15.12-35.82-22.79-53.67-4.67-11.61-10.1-22.91-14.43-34.66z" fill="#8C6CAB" stroke="#8C6CAB"/>
	<path d="m1622.5 1049.9c1.4-1.1899 2.73-2.48 4.03-3.79 0.5599 1.38 0.4299 3.4701 2.14 4.1001 3.5199 1.6699 7.5199 0.7999 11.24 0.4099 0.5499-0.01 1.6599-0.0299 2.21-0.0499 4.72 9.96 8.58 20.31 13.05 30.39 8.48 19.99 17.06 39.94 25.42 59.98-5.45 2.35-10.92 4.63-16.37 6.97-8.29-20.06-17.06-39.92-25.27-60.02-5.6599-12.59-10.57-25.51-16.45-37.99z" fill="#8C6CAB" stroke="#8C6CAB"/>
	<path d="m1587.8 1055.5c0.5801-0.03 1.7301-0.0701 2.3101-0.0901 4.86 0.3501 9.75 0.4601 14.62 0.02 14 33.28 28.25 66.45 42.3 99.7-4.8301 2.0499-9.65 4.11-14.5 6.11-14.7-35.34-29.95-70.44-44.73-105.74z" fill="#8C6CAB" stroke="#8C6CAB"/>
	<path d="m489.36 1326.2c6.16-0.02 12.33-0.01 18.49 0.0199-0.04 28.25-0.01 56.51-0.01 84.76 0.06 6.1001-0.25 12.21 0.31 18.31-3.37 3.54-7.1 7.6-7.37 12.75 0.15 4.16 4.75 5.65 8.15 6.33-3.28 1.11-7.99 2.39-8.15 6.63 0.2 5.12 3.98 9.12 7.28 12.68-0.52 34.36-0.1 68.75-0.21 103.13-6.17 0.0499-12.35 0.0399-18.52-0.01 0-10.35 0.21-20.71-0.09-31.04l-0.9-0.64c0.26-0.0499 0.78-0.1699 1.04-0.23-0.02-11.18 0.06-22.37-0.04-33.55-0.31-0.2001-0.92-0.6001-1.23-0.8l1.24 0.5599c0.05-14.22 0.01-28.43 0.03-42.64 0.02-8.2201-0.01-16.44 0-24.65-0.02-37.21 0.02-74.41-0.02-111.61z" fill="#8C6CAB" stroke="#8C6CAB"/>
	<path d="m607.13 1326.2c4.12-0.02 8.24-0.02 12.37 0.0099-0.02 25.62 0 51.25-0.01 76.87-4.11-0.39-8.23-0.65-12.35-0.79-0.1-25.36-0.04-50.73-0.01-76.09z" fill="#8C6CAB" stroke="#8C6CAB"/>
	<path d="m634.52 1326.2c4.65-0.02 9.3-0.02 13.96 0 0.6 9.9099 0.14 19.85 0.28 29.77-0.05 18.37 0.12 36.73-0.09 55.1-2.09 0.34-4.09 1.0399-6.04 1.7999 1.45-4.91-4.63-6.41-8.14-7.4299 0.1-26.41 0.05-52.83 0.03-79.24z" fill="#8C6CAB" stroke="#8C6CAB"/>
	<path d="m688.22 1326.2c6.45-0.05 12.89 0.0299 19.34-0.05 0.03 81.56 0.01 163.11 0.01 244.67-6.45 0.0199-12.9 0.0299-19.34-0.02 0.33-26.6 0.05-53.2 0.14-79.8-0.12-7.49 0.34-15-0.35-22.47 3.61-3.8 7.69-8 8.14-13.49-0.19-4.53-5.24-5.8-8.83-6.54 3.6-0.78 8.55-1.98 8.83-6.48-0.43-5.49-4.5099-9.73-8.1299-13.51 0.67-7.8199 0.21-15.66 0.34-23.49-0.0901-26.27 0.1999-52.55-0.1501-78.82z" fill="#8C6CAB" stroke="#8C6CAB"/>
	<path d="m550.31 1411.4c0.22-28.27-0.12-56.54 0.17-84.8 4.61-0.1 9.23-0.1 13.85-0.0499 0.53 26.12-0.04 52.25 0.28 78.38-3.9 0.85-7.93 2.01-10.76 5 0.19 0.97 0.4 1.97 0.61 2.99-1.39-0.5401-2.76-1.0802-4.15-1.5201z" fill="#8C6CAB" stroke="#8C6CAB"/>
	<path d="m579.63 1402.6c-0.21-25.33-0.28-50.69 0.04-76.02 4.11-0.2101 8.23-0.23 12.34 0.01 0.02 25.23-0.02 50.45 0.02 75.68-2.63 0.04-5.2401 0.1901-7.86 0.3201-1.52 0.01-3.03 0.01-4.54 0.01z" fill="#8C6CAB" stroke="#8C6CAB"/>
	<path d="m663.81 1363.8c2.48 2.72 5.64 4.8101 9.5 4.62 0.09 12.17 0 24.35 0.04 36.52-0.02 4.21 0.42 8.49-0.65 12.63-2.86-1.55-5.81-2.92-8.86-4.03-0.07-16.58-0.06-33.16-0.03-49.74z" fill="#8C6CAB" stroke="#8C6CAB"/>
	<path d="m663.83 1483.4c3.07-1.13 6.01-2.5901 8.92-4.0901 0.68 3.15 0.72 6.39 0.62 9.62-0.1 27.01 0.07 54.02-0.08 81.03-3.16 0.13-6.31 0.12-9.46 0-0.06-28.86-0.06-57.71 0-86.56z" fill="#8C6CAB" stroke="#8C6CAB"/>
	<path d="m550.3 1485.6c1.33-0.46 2.63-0.99 3.95-1.49 0.08 1.3101-0.53 2.98 0.65 4 2.79 2.38 6.54 3.16 10.01 4.0701-0.83 10.92-0.17 21.89-0.3799 32.84 0.04 14.93-0.08 29.86 0.0699 44.79-4.67 0.83-9.43 0.6899-14.12 0.12-0.2999-28.11 0.0701-56.22-0.1799-84.33z" fill="#8C6CAB" stroke="#8C6CAB"/>
	<path d="m642.67 1484.2c1.95 0.7 3.93 1.38 5.98 1.7899 0.21 28.28 0.14 56.57 0.04 84.85-4.74 0-9.47 0.0399-14.21-0.04 0.17-26.26-0.04-52.53 0.11-78.79 0.28-0.2 0.84-0.6 1.12-0.7999 3.22-1.0101 8.35-2.6101 6.96-7.0101z" fill="#8C6CAB" stroke="#8C6CAB"/>
	<path d="m606.84 1494.7c4.22-0.12 8.44-0.3899 12.65-0.7799 0.03 25.62-0.05 51.25 0.04 76.87-4.21 0.02-8.42 0.01-12.62-0.01 0.42-10.61 0.09-21.23 0.19-31.84-0.0499-14.75 0.1901-29.5-0.2599-44.24z" fill="#8C6CAB" stroke="#8C6CAB"/>
	<path d="m579.49 1525c0.15-10.15-0.32-20.32 0.24-30.45 1.49-0.0601 2.98-0.09 4.48-0.0801 2.59 0.1101 5.18 0.2401 7.78 0.3201 0.02 25.03 0.11 50.07-0.02 75.1-4.1 0.03-8.1899 0.0601-12.28 0.14-0.46-15-0.07-30.02-0.2-45.03z" fill="#8C6CAB" stroke="#8C6CAB"/>
	<path d="m1688.1 805.55c5.21-2.13 10.37-4.42 15.57-6.6 16.78 39.39 33.57 78.77 50.2 118.21-8.2999-3.22-17.14-4.8-25.98-5.55 0.79-0.08 2.37-0.24 3.16-0.32-8-18.7-15.9-37.45-23.85-56.17 2.4399-3.15 5.2799-6.89 3.86-11.13-0.39-3.88-4.11-5.74-7.0801-7.47-4.8399-10.55-10.22-20.85-15.88-30.97z" fill="#BE93C0" stroke="#BE93C0"/>
	<path d="m1560.9 859.53c5.74-2.47 11.5-4.91 17.26-7.35 4.7101 9.44 8.3301 19.39 12.61 29.03 8.35 19.71 16.78 39.39 25.08 59.13-5.5601 2.98-11.1 6.04-16.24 9.71-8.37-19.83-16.88-39.6-25.21-59.45-4.5701-10.33-8.6001-20.9-13.5-31.07z" fill="#BE93C0" stroke="#BE93C0"/>
	<path d="m1761 982.11c4.75-5.99 8.6799-12.61 11.81-19.59 1.7001 3.3 3.2301 6.68 4.63 10.12 15.16 35.96 30.58 71.8 45.66 107.78-5.6899 2.37-11.3 4.9399-17.03 7.1899-15.44-34.98-29.88-70.4-45.07-105.5z" fill="#BE93C0" stroke="#BE93C0"/>
	<path d="m1639.9 1050.6c7.0699-1.14 13.98-3.09 20.77-5.36 4.3301 11.75 9.76 23.05 14.43 34.66 7.67 17.85 15.2 35.77 22.79 53.67-5.77 2.47-11.54 4.9099-17.31 7.35-8.36-20.04-16.94-39.99-25.42-59.98-4.4701-10.08-8.3301-20.43-13.05-30.39-0.55 0.0201-1.66 0.04-2.21 0.05z" fill="#BE93C0" stroke="#BE93C0"/>
	<path d="m550.49 1326.1c9.73-0.38 19.46 0.3 29.2 0.05l-0.02 0.39c-0.32 25.33-0.25 50.69-0.04 76.02 1.51 0 3.02 0 4.54-0.01-6.55 0.48-13.13 0.95-19.56 2.37-0.32-26.13 0.25-52.26-0.28-78.38-4.62-0.05-9.24-0.05-13.85 0.0499l0.01-0.4899z" fill="#BE93C0" stroke="#BE93C0"/>
	<path d="m674.83 1326.2c4.46 0.03 8.92-0.01 13.39 0.03 0.35 26.27 0.0601 52.55 0.15 78.82-0.13 7.83 0.33 15.67-0.34 23.49-4.65-4.23-9.83-7.85-15.33-10.87 1.07-4.14 0.63-8.42 0.65-12.63-0.04-12.17 0.05-24.35-0.04-36.52 2.89-1.1599 6.01-3.1799 6.43-6.5499 0.57-2.8301-1.07-5.3101-2.41-7.61-0.67-2.05-0.85-4.2201-0.88-6.3301-0.08-7.3099-0.91-14.57-1.62-21.83z" fill="#BE93C0" stroke="#BE93C0"/>
	<path d="m672.75 1479.3c5.5-2.98 10.62-6.65 15.27-10.83 0.69 7.47 0.23 14.98 0.35 22.47-0.09 26.6 0.19 53.2-0.14 79.8-8.14-0.28-16.27 0.49-24.4 0.13v-0.92c3.15 0.12 6.3 0.13 9.46 0 0.15-27.01-0.02-54.02 0.08-81.03 0.1-3.23 0.06-6.47-0.62-9.62z" fill="#BE93C0" stroke="#BE93C0"/>
	<path d="m564.91 1492.2c6.35 1.3099 12.85 1.6899 19.3 2.2599-1.5-0.0099-2.9901 0.02-4.48 0.0801-0.56 10.13-0.09 20.3-0.24 30.45 0.13 15.01-0.26 30.03 0.2 45.03l0.04 0.85c-9.72-0.46-19.45 0.59-29.16 0.02l-0.09-0.9399c4.69 0.5699 9.45 0.71 14.12-0.12-0.15-14.93-0.03-29.86-0.0699-44.79 0.2099-10.95-0.4501-21.92 0.3799-32.84z" fill="#BE93C0" stroke="#BE93C0"/>
	<path d="m1675.2 811.05c1.23-0.51 2.39-1.08 3.6799-1.58 5.2101 9.02 9.7101 18.42 14.39 27.72-1.03 3.27-2.14 6.53-2.65 9.93-5.0099-12.08-10.04-24.15-15.42-36.07z" fill="#8D6BAB" stroke="#8D6BAB"/>
	<path d="m1672.3 812.18l0.5901-0.23c0.5599-0.22 1.6799-0.67 2.24-0.9 5.38 11.92 10.41 23.99 15.42 36.07 0.91 2.4 2.05 4.7 3.0901 7.06 8.0299 19.15 16.34 38.18 24.37 57.33-6.3401 0.37-12.73 1.56-18.44 4.44-13.98-32.5-27.72-65.1-41.55-97.66 4.75-2.06 9.5499-3.98 14.28-6.11z" fill="#ED6BA7" stroke="#ED6BA7"/>
	<path d="m1527.5 873.7c5.66-2.44 11.37-4.78 17.04-7.23 6.85 14.41 12.56 29.35 19.01 43.96 7.6 18 15.22 36 22.85 53.99-6.2101 1.38-11.67 4.87-16.5 8.89-14.24-33.16-28.25-66.42-42.4-99.61z" fill="#ED6BA7" stroke="#ED6BA7"/>
	<path d="m1736.1 1002.1c6.04-2.04 11.29-5.86 16-10.08 7.17 15.99 13.56 32.31 20.65 48.33 7.2 17.44 14.81 34.71 22.07 52.12-5.72 2.47-11.47 4.88-17.22 7.2899-13.97-32.5-27.62-65.12-41.5-97.66z" fill="#ED6BA7" stroke="#ED6BA7"/>
	<path d="m1604.8 1055.5c6.2-0.6499 12.46-2.1599 17.75-5.59 5.88 12.48 10.79 25.4 16.45 37.99 8.2101 20.1 16.98 39.96 25.27 60.02-5.74 2.38-11.45 4.85-17.17 7.28-14.05-33.25-28.3-66.42-42.3-99.7z" fill="#ED6BA7" stroke="#ED6BA7"/>
	<path d="m1624.3 832.3c6.03-1.86 11.66-4.78 17.53-7.08 12.63 30.51 26.02 60.71 38.5 91.28-6.2101 1-12.29 2.64-18.28 4.53-11.91-28.13-23.95-56.22-35.81-84.37-0.6599-1.43-1.49-2.7599-2.25-4.1 0.0801-0.0599 0.2302-0.1899 0.3101-0.2599z" fill="#F098C0" stroke="#F098C0"/>
	<path d="m1495.9 887.12c4.71-1.97 9.37-4.05 14.12-5.95 3.16 10.79 6.96 21.36 10.88 31.89-1.5601 3.67-2.24 8.22 0.42 11.59 2.6299 4.21 8.12 5.3 12.67 4 8.13 19 15.86 38.19 24.37 57.01-4.84 6.26-8.83 13.15-11.9 20.44-16.89-39.65-33.74-79.31-50.56-118.98z" fill="#F098C0" stroke="#F098C0"/>
	<path d="m1689.7 927.7c4.8099-6.14 12.88-8.07 20.28-8.81 12.09-0.93 24.45 0.94 35.72 5.44 4.89 2.05 10.04 4.75 12.64 9.62 1.6 5.14-3.3301 8.71-7.2401 10.84 3.7401-0.61 8.1801-2.05 11.46 0.66 2.62 2.6 2.36 6.7 1.8199 10.07-1.25 6.78-4.37 13.07-7.9399 18.91-5.16 8.21-11.48 15.87-19.45 21.49-4.59 3.24-10.05 5.37-15.72 5.28 3.73 3.68-1.03 7.82-3.89 10.16-13 9.97-28.2 16.61-43.27 22.8-11.35 4.45-22.98 8.65-35.14 10.12-3.48 0.3099-8.8199 0.45-9.1399-4.1801-5.79 6.27-14.66 8.0701-22.83 8.37-12.62 0.37-25.56-1.78-36.88-7.53-3.7-1.99-7.9299-4.5699-8.77-9.0299-0.6399-4.12 3.28-6.63 6-8.92-3.88 0.38-9.2599 1.2-11.34-3.07-1.8199-4.77-0.37-10.04 1.23-14.66 3.8201-9.99 9.89-19.04 17.26-26.75 6.24-6.33 14.12-12.55 23.47-12.38-2.6499-5.13 2.8601-9.06 6.41-11.8 15.4-10.71 32.8-18.2 50.34-24.67 9.8301-3.24 19.88-6.91 30.37-6.78 2.82-0.24 5.1299 1.94 4.61 4.82z" fill="#F098C0" stroke="#F098C0"/>
	<path d="m1706.4 1025.6c5.5701-3.04 11.12-6.22 16.13-10.14 13.02 30.39 25.53 61.01 38.95 91.22-5.83 2.38-11.56 5-17.42 7.3099-12.76-29.38-25.02-58.96-37.66-88.39z" fill="#F098C0" stroke="#F098C0"/>
	<path d="m1565.1 1049.7c8.01 3.0801 16.46 4.87 25 5.72-0.58 0.02-1.73 0.0601-2.3101 0.0901 14.78 35.3 30.03 70.4 44.73 105.74-5.6801 2.49-11.41 4.87-17.14 7.27-16.8-39.59-33.84-79.08-50.28-118.82z" fill="#F098C0" stroke="#F098C0"/>
	<path d="m507.85 1326.2c4.13-0.0099 8.26-0.0199 12.39 0.01-0.96 9.03-1.6 18.08-1.83 27.16-2.21 2.23-4.59 5.27-3.5 8.64 0.6801 3.79 4.17 6.37 7.94 6.54-0.14 16.62 0.06 33.24-0.09 49.86-5.25 3.0599-10.26 6.59-14.61 10.86-0.56-6.1-0.25-12.21-0.31-18.31 0-28.25-0.03-56.51 0.01-84.76z" fill="#F098C0" stroke="#F098C0"/>
	<path d="m619.5 1326.2c5 0.02 10.01 0 15.02-0.0099 0.02 26.41 0.07 52.83-0.03 79.24-4.92-1.2301-9.97-1.8501-15-2.36 0.01-25.62-0.01-51.25 0.01-76.87z" fill="#F098C0" stroke="#F098C0"/>
	<path d="m508.06 1467.6c4.37 4.2899 9.38 7.85 14.67 10.93 0.12 30.72 0.15 61.44-0.01 92.17-4.96 0.11-9.91 0.05-14.87 0.03 0.11-34.38-0.31-68.77 0.21-103.13z" fill="#F098C0" stroke="#F098C0"/>
	<path d="m619.49 1493.9c5.46-0.51 10.92-1.3 16.22-2.76-0.28 0.2-0.84 0.6-1.12 0.7999-0.15 26.26 0.06 52.53-0.11 78.79-4.98 0.1-9.97 0.03-14.95 0.04-0.09-25.62-0.01-51.25-0.04-76.87z" fill="#F098C0" stroke="#F098C0"/>
	<path d="m1693.2 837.19c1.37 3.41 2.74 6.86 4.8 9.94 2.62-1.02 5.38-1.87 7.64-3.62 0.21-2.44-1-4.75-1.7401-6.99 2.9701 1.73 6.6901 3.59 7.0801 7.47 1.4199 4.24-1.42 7.98-3.86 11.13-4.4401 1.9-9.3101 1.29-13.48-0.94-1.04-2.36-2.1801-4.66-3.0901-7.06 0.5101-3.4 1.6201-6.66 2.6501-9.93z" fill="#8190C7" stroke="#8190C7"/>
	<path d="m1592.8 845.97c5.8301-2.45 11.65-4.9399 17.48-7.41 3.3899 9.65 8.0199 18.81 11.81 28.32 8.35 19.79 16.77 39.55 25.09 59.35-5.73 2.2-11.4 4.57-16.99 7.09-1.9099-3.43-3.49-7.03-4.85-10.7-10.98-25.5-21.69-51.1-32.54-76.65z" fill="#8190C7" stroke="#8190C7"/>
	<path d="m1531.7 908.91c3.54 1.56 7.49 3.95 7.9 8.22 0.9399 4.65-1.64 9.24-5.65 11.52-4.5499 1.3-10.04 0.21-12.67-4-2.66-3.37-1.9801-7.92-0.42-11.59 1.08 2.66 2.41 5.21 3.75 7.75 3.34-1.16 6.5499-2.66 9.51-4.62-0.7601-2.45-1.5201-4.9-2.4201-7.28z" fill="#8190C7" stroke="#8190C7"/>
	<path d="m1675.4 1039.9c5.64-2.2001 11.19-4.61 16.69-7.17 0.8201 1.5901 1.66 3.2001 2.4301 4.86 11.68 27.52 23.47 55 34.96 82.6-5.6699 2.4199-11.34 4.8099-17.01 7.1899-5.08-10.46-8.99-21.44-13.82-32.01-7.6301-18.54-16.05-36.75-23.25-55.47z" fill="#8190C7" stroke="#8190C7"/>
	<path d="m579.69 1326.1c9.15-0.03 18.29 0.0599 27.44 0.04-0.03 25.36-0.09 50.73 0.01 76.09-5.04-0.13-10.08-0.11-15.11-0.05-0.04-25.23 0-50.45-0.02-75.68-4.11-0.24-8.23-0.2201-12.34-0.01l0.02-0.3901z" fill="#8190C7" stroke="#8190C7"/>
	<path d="m591.99 1494.8c4.95 0.09 9.9 0.0599 14.85-0.0601 0.45 14.74 0.21 29.49 0.2599 44.24-0.1 10.61 0.23 21.23-0.19 31.84-9.06-0.13-18.12 0.2999-27.18 0.0699l-0.04-0.85c4.09-0.08 8.18-0.11 12.28-0.14 0.1301-25.03 0.0401-50.07 0.0201-75.1z" fill="#8190C7" stroke="#8190C7"/>
	<path d="m1718 911.51c3.26-0.17 6.5199-0.06 9.7999 0.1 8.84 0.75 17.68 2.33 25.98 5.55 5.89 2.59 12.92 5.41 15.44 11.86 1.45 5.12-3.59 8.57-7.0801 11.24 4.29-0.91 10.43-1.98 13 2.68 2.8501 6.38-0.1 13.47-2.36 19.58-3.13 6.98-7.0599 13.6-11.81 19.59-2.73 3.5-5.73 6.79-8.92 9.87-4.71 4.22-9.96 8.04-16 10.08-2.66 0.76-5.4299 0.88-8.15 0.84 0.8 1.39 2.3 2.9 1.55 4.67-1.37 3.33-4.36 5.58-7.01 7.85-5.01 3.92-10.56 7.1-16.13 10.14-4.6899 2.5199-9.4399 4.9399-14.27 7.1599-5.5 2.5601-11.05 4.97-16.69 7.17-4.85 1.92-9.77 3.67-14.71 5.34-6.7899 2.27-13.7 4.22-20.77 5.36-3.7201 0.39-7.7201 1.26-11.24-0.4099-1.7101-0.63-1.5801-2.7201-2.14-4.1001-1.3 1.3101-2.63 2.6001-4.03 3.79-5.29 3.4301-11.55 4.9401-17.75 5.59-4.87 0.4401-9.76 0.3301-14.62-0.02-8.54-0.85-16.99-2.6399-25-5.72-5.67-2.63-12.55-5.53-14.69-11.94-1.08-4.78 3.4401-7.89 6.65-10.5-4.01 0.4-9.1799 1.4099-12.01-2.26-3.4-5.94-0.7799-13.02 1.36-18.92 3.0701-7.29 7.0601-14.18 11.9-20.44 3.48-4.44 7.26-8.67 11.55-12.35 4.83-4.02 10.29-7.51 16.5-8.89 2.02-0.22 4.08-0.2 6.14-0.06-1.48-1.19-3.17-2.95-2.0701-4.98 1.89-4.04 5.73-6.68 9.17-9.33 5.14-3.67 10.68-6.73 16.24-9.71 4.71-2.47 9.5-4.78 14.33-7.02 5.5901-2.52 11.26-4.89 16.99-7.09 4.89-1.84 9.8101-3.63 14.81-5.2 5.99-1.89 12.07-3.53 18.28-4.53 4.5399-0.41 12.59-1.95 13.08 4.65 1.8101-2.04 3.85-3.87 6.24-5.2 5.7099-2.8801 12.1-4.0701 18.44-4.4401m-28.38 16.19c0.5199-2.88-1.79-5.06-4.61-4.82-10.49-0.13-20.54 3.54-30.37 6.78-17.54 6.47-34.94 13.96-50.34 24.67-3.5499 2.74-9.0599 6.67-6.41 11.8-9.35-0.17-17.23 6.05-23.47 12.38-7.37 7.71-13.44 16.76-17.26 26.75-1.6 4.62-3.0499 9.89-1.23 14.66 2.0801 4.27 7.46 3.45 11.34 3.07-2.72 2.29-6.6399 4.8-6 8.92 0.8401 4.46 5.0701 7.0399 8.77 9.0299 11.32 5.75 24.26 7.9 36.88 7.53 8.17-0.2999 17.04-2.1 22.83-8.37 0.3199 4.63 5.6599 4.49 9.1399 4.1801 12.16-1.47 23.79-5.67 35.14-10.12 15.07-6.1901 30.27-12.83 43.27-22.8 2.86-2.34 7.62-6.48 3.89-10.16 5.67 0.09 11.13-2.04 15.72-5.28 7.9701-5.62 14.29-13.28 19.45-21.49 3.5699-5.84 6.6899-12.13 7.9399-18.91 0.54-3.37 0.8-7.47-1.8199-10.07-3.28-2.71-7.72-1.27-11.46-0.66 3.91-2.13 8.8401-5.7 7.2401-10.84-2.6001-4.87-7.75-7.57-12.64-9.62-11.27-4.5-23.63-6.37-35.72-5.44-7.3999 0.74-15.47 2.67-20.28 8.81z" fill="#FEFFFE" stroke="#FEFFFE"/>
	<path d="m579.27 1209.2c9.99-4.78 21.93-5.4501 32.37-1.73 15.35 5.5099 26.89 18.11 35.41 31.58 16.33 26.17 24.25 56.74 27.78 87.14 0.71 7.26 1.54 14.52 1.62 21.83 0.03 2.11 0.21 4.28 0.88 6.3301-0.5 1.84-0.75 3.73-0.94 5.6499-2.37 0.64-4.81 0.49-7.17 0.02-0.29-2.45-0.61-4.88-0.61-7.34 0.27-8.85-0.7-17.67-1.76-26.44-2.39-20.77-7.24-41.36-15.38-60.65-5.46-12.67-12.42-24.93-22.16-34.82-6.85-6.96-15.46-12.65-25.22-14.33-9.02-1.64-18.44 0.7-26.17 5.47-11.02 6.8101-19.2 17.33-25.63 28.4-13.15 23.24-19.73 49.62-23.02 75.95-0.63 4.8301-1.04 9.6901-1.47 14.54-1.21 6.34-0.59 12.79-0.87 19.19-2.91 0.37-5.85 0.37-8.75 0.04 0.06-2.23 0.13-4.4299 0.23-6.63 0.23-9.08 0.8701-18.13 1.83-27.16 2.46-20.9 7.02-41.65 14.76-61.25 5.15-12.73 11.5-25.11 20.11-35.86 6.6-8.1597 14.56-15.48 24.16-19.93z" fill="#8F9DCE" stroke="#8F9DCE"/>
	<path d="m535.43 1326.2c5.02-0.01 10.04 0.0499 15.06-0.0901l-0.01 0.49c-0.29 28.26 0.05 56.53-0.17 84.8-4.99-0.7-10.1-0.2-14.88 1.38-0.1-28.86-0.12-57.73 0-86.58z" fill="#EF6BA7" stroke="#EF6BA7"/>
	<path d="m535.38 1484.2c4.81 1.4801 9.91 2.13 14.92 1.4 0.25 28.11-0.12 56.22 0.18 84.33l0.09 0.9399c-5.04-0.16-10.08-0.0699-15.11-0.0699-0.21-28.87-0.07-57.73-0.08-86.6z" fill="#EF6BA7" stroke="#EF6BA7"/>
	<path d="m648.48 1326.2c5.14 0.0099 10.27 0 15.41-0.02-0.19 10.31-0.08 20.63-0.08 30.94 0.01 2.24 0.01 4.49 0 6.75-0.03 16.58-0.04 33.16 0.03 49.74-4.84-1.8199-9.9901-2.7999-15.17-2.5399 0.21-18.37 0.04-36.73 0.09-55.1-0.14-9.92 0.32-19.86-0.28-29.77z" fill="#ED6BA6" stroke="#ED6BA6"/>
	<path d="m648.65 1485.9c5.17 0.17 10.33-0.74 15.18-2.5099-0.06 28.85-0.06 57.7 0 86.56v0.92c-5.04-0.26-10.1-0.0701-15.14-0.12 0.1-28.28 0.17-56.57-0.04-84.85z" fill="#ED6BA6" stroke="#ED6BA6"/>
	<path d="m663.89 1326.2c0.74 0.01 2.22 0.0299 2.96 0.0399 1.06 8.77 2.03 17.59 1.76 26.44-1.62 1.46-3.22 2.95-4.8 4.46 0-10.31-0.11-20.63 0.08-30.94z" fill="#8D6BAC" stroke="#8D6BAC"/>
	<path d="m529.27 1326.2c2.05-0.03 4.1-0.0599 6.16-0.0399-0.12 28.85-0.1 57.72 0 86.58-4.39 1.47-8.65 3.33-12.67 5.64 0.15-16.62-0.05-33.24 0.09-49.86 3.6-0.4601 7.5-2.75 7.79-6.73 0.7-3.29-1.68-5.91-2.79-8.76-0.61-4.0701-0.09-8.2101-0.05-12.29 0.43-4.8501 0.84-9.7101 1.47-14.54z" fill="#8B6CAC" stroke="#8B6CAC"/>
	<path d="m526.93 1360c0.28-6.3999-0.34-12.85 0.87-19.19-0.04 4.08-0.56 8.22 0.05 12.29 1.11 2.85 3.4901 5.47 2.79 8.76-0.29 3.98-4.19 6.2699-7.79 6.73-3.77-0.17-7.2599-2.75-7.94-6.54-1.09-3.37 1.29-6.41 3.5-8.64-0.1 2.2001-0.17 4.4-0.23 6.63 2.9 0.3298 5.84 0.3298 8.75-0.0401z" fill="#8091C7" stroke="#8091C7"/>
	<path d="m663.81 1357.1c1.58-1.51 3.18-3 4.8-4.46 0 2.46 0.32 4.89 0.61 7.34 2.36 0.47 4.8 0.62 7.17-0.02 0.19-1.9199 0.44-3.8099 0.94-5.6499 1.34 2.2999 2.98 4.7799 2.41 7.61-0.42 3.37-3.54 5.39-6.43 6.5499-3.86 0.1901-7.02-1.9-9.5-4.62 0.01-2.26 0.01-4.51 0-6.75z" fill="#8090C7" stroke="#8090C7"/>
	<path d="m584.17 1402.5c2.62-0.13 5.23-0.28 7.86-0.3201 5.03-0.0599 10.07-0.08 15.11 0.05 4.12 0.14 8.24 0.4 12.35 0.79 5.03 0.5099 10.08 1.1299 15 2.36 3.51 1.0199 9.59 2.5199 8.14 7.4299 1.95-0.76 3.95-1.46 6.04-1.7999 5.18-0.26 10.33 0.72 15.17 2.5399 3.05 1.11 6 2.48 8.86 4.03 5.5 3.02 10.68 6.64 15.33 10.87 3.62 3.78 7.7 8.02 8.1299 13.51-0.28 4.5-5.23 5.7-8.83 6.48 3.59 0.74 8.64 2.01 8.83 6.54-0.45 5.49-4.53 9.6899-8.14 13.49-4.65 4.1799-9.77 7.85-15.27 10.83-2.91 1.5-5.85 2.9601-8.92 4.0901-4.85 1.7699-10.01 2.6799-15.18 2.5099-2.05-0.4099-4.03-1.09-5.98-1.7899 1.39 4.4-3.74 6-6.96 7.01-5.3 1.46-10.76 2.25-16.22 2.76-4.21 0.39-8.43 0.6599-12.65 0.7799-4.95 0.12-9.9 0.15-14.85 0.0601-2.6-0.08-5.19-0.21-7.78-0.3201-6.45-0.5699-12.95-0.95-19.3-2.2599-3.47-0.91-7.22-1.6901-10.01-4.0701-1.1801-1.02-0.57-2.6899-0.65-4-1.32 0.5-2.62 1.03-3.95 1.49-5.01 0.73-10.11 0.0801-14.92-1.4-4.39-1.45-8.63-3.36-12.65-5.62-5.29-3.08-10.3-6.64-14.67-10.93-3.3-3.5601-7.08-7.5601-7.28-12.68 0.16-4.24 4.87-5.52 8.15-6.63-3.4-0.6799-8-2.1699-8.15-6.33 0.27-5.15 4-9.21 7.37-12.75 4.35-4.27 9.36-7.8 14.61-10.86 4.02-2.3101 8.28-4.17 12.67-5.64 4.78-1.58 9.89-2.08 14.88-1.38 1.39 0.4399 2.76 0.98 4.15 1.52-0.21-1.02-0.42-2.02-0.61-2.99 2.83-2.99 6.86-4.15 10.76-5 6.43-1.4198 13.01-1.8898 19.56-2.3698m-16.14 6.71c-3.75 1.15-9.48 1.64-9.79 6.62-5.78-1.74-11.98-1.27-17.6 0.8199-9.82 3.4801-18.98 9.27-25.89 17.12-2.27 2.84-4.84 6.33-3.99 10.19 0.97 3.12 4.62 3.53 7.25 4.6-2.97 0.8201-7.1 1.55-7.43 5.37-0.12 4.29 2.93 7.8401 5.62 10.9 5.53 5.71 12.31 10.12 19.49 13.47 7.01 3.1801 15.05 5.2201 22.61 2.74 0.1 1.9601 1.07 3.9 3.09 4.52 9.37 3.8201 19.71 3.84 29.67 4.52 12.35 0.4301 24.81-0.09 37-2.25 4.14-1.04 9.94-1.59 10.81-6.74 5.23 1.5699 10.79 1.36 15.94-0.39 9.99-3.21 19.26-8.87 26.42-16.55 2.49-2.8899 5.17-6.21 5.16-10.21-0.23-3.5499-4.07-4.33-6.72-5.39 2.51-1.2999 6.36-2.0299 6.64-5.46 0.21-3.8-2.25-7.0699-4.54-9.85-5.93-6.35-13.22-11.37-21.13-14.92-6.84-2.96-14.64-4.92-21.94-2.45-0.42-1.39-0.41-3.15-1.95-3.78-4.73-2.92-10.44-3.33-15.81-4.16-17.58-1.7898-35.48-1.9299-52.91 1.2801z" fill="#FEFEFD" stroke="#FEFEFD"/>
	<path d="m568.03 1409.2c17.43-3.21 35.33-3.0699 52.91-1.28 5.37 0.8301 11.08 1.24 15.81 4.16 1.54 0.63 1.53 2.39 1.95 3.78 7.3-2.4701 15.1-0.51 21.94 2.45 7.91 3.55 15.2 8.5701 21.13 14.92 2.29 2.78 4.75 6.0499 4.54 9.85-0.28 3.4301-4.13 4.16-6.64 5.46 2.65 1.0601 6.49 1.8401 6.72 5.39 0.01 4-2.67 7.3201-5.16 10.21-7.16 7.6801-16.43 13.34-26.42 16.55-5.15 1.75-10.71 1.96-15.94 0.39-0.87 5.15-6.67 5.7-10.81 6.74-12.19 2.16-24.65 2.6801-37 2.25-9.96-0.6801-20.3-0.7-29.67-4.52-2.02-0.62-2.99-2.5599-3.09-4.52-7.56 2.4801-15.6 0.4401-22.61-2.74-7.18-3.35-13.96-7.76-19.49-13.47-2.69-3.0599-5.74-6.61-5.62-10.9 0.33-3.8199 4.46-4.5499 7.43-5.37-2.63-1.0699-6.28-1.48-7.25-4.6-0.85-3.86 1.72-7.35 3.99-10.19 6.91-7.8501 16.07-13.64 25.89-17.12 5.62-2.09 11.82-2.5599 17.6-0.8199 0.31-4.9801 6.04-5.4701 9.79-6.6201z" fill="#AFDFE9" stroke="#AFDFE9"/>
	<path d="m522.73 1478.6c4.02 2.26 8.26 4.17 12.65 5.62 0.01 28.87-0.13 57.73 0.08 86.6-4.25 0-8.5 0.0199-12.74-0.05 0.1601-30.73 0.1301-61.45 0.0101-92.17z" fill="#8B6CAB" stroke="#8B6CAB"/>
</g>
</svg>